<svg xmlns="http://www.w3.org/2000/svg" width="52.519" height="49" viewBox="0 0 52.519 49">
  <g id="logo_mobile" data-name="logo mobile" transform="translate(0.5 0.5)">
    <path id="Subtraction_2" data-name="Subtraction 2" d="M39.852,48H5.353A5.383,5.383,0,0,1,0,42.6V10.8A5.433,5.433,0,0,1,1.748,6.82H1.742l.125-.106c.045-.04.091-.079.138-.118l5.94-5.07A5.3,5.3,0,0,1,11.666,0h34.5a5.383,5.383,0,0,1,5.353,5.4V37.2a5.392,5.392,0,0,1-2.029,4.226L43.333,46.7c-.041.036-.081.072-.122.106l-.032.027A5.279,5.279,0,0,1,39.852,48ZM12.5,1.2a5.006,5.006,0,0,0-5,5V36.4a5.006,5.006,0,0,0,5,5H45.328a5.006,5.006,0,0,0,5-5V6.2a5.005,5.005,0,0,0-5-5Z" fill="#32383d" stroke="rgba(0,0,0,0)" stroke-miterlimit="10" stroke-width="1"/>
    <path id="Path_947" data-name="Path 947" d="M962.712,963.728" transform="translate(-919.291 -916.928)" fill="#32383d" stroke="#b3b3b3" stroke-miterlimit="10" stroke-width="0.707"/>
    <path id="Path_682-7" data-name="Path 682-7" d="M856.08,874.233h-1.753a.363.363,0,0,1-.424-.292.38.38,0,0,1,0-.135v-7.691a.366.366,0,0,1,.29-.427.353.353,0,0,1,.134,0h1.9a.549.549,0,0,1,.312.083.773.773,0,0,1,.229.273l1.059,1.934a.885.885,0,0,0,.1.155.139.139,0,0,0,.111.047h.106a.139.139,0,0,0,.112-.047.931.931,0,0,0,.1-.155l1.047-1.934a.776.776,0,0,1,.23-.273.55.55,0,0,1,.312-.083h1.906a.363.363,0,0,1,.424.292.376.376,0,0,1,0,.135v7.691a.366.366,0,0,1-.29.427.362.362,0,0,1-.134,0h-1.812a.363.363,0,0,1-.424-.292.384.384,0,0,1,0-.135v-4.178l-.694,1.294a.63.63,0,0,1-.624.38h-.473a.63.63,0,0,1-.624-.38l-.694-1.294v4.178a.366.366,0,0,1-.29.427.359.359,0,0,1-.131,0Z" transform="translate(-842.838 -848.294)" fill="#32383d"/>
    <path id="Path_683-7" data-name="Path 683-7" d="M891.675,874.236h-1.906a.363.363,0,0,1-.424-.292.378.378,0,0,1,0-.135V872.29l-1.8-2.434a2.366,2.366,0,0,1-.359-.641,2.845,2.845,0,0,1-.088-.819v-2.279a.365.365,0,0,1,.289-.427.361.361,0,0,1,.134,0h1.812a.363.363,0,0,1,.424.292.369.369,0,0,1,0,.135v1.946a1.8,1.8,0,0,0,.012.25.51.51,0,0,0,.094.249l.541.855a.466.466,0,0,0,.123.153.261.261,0,0,0,.159.048h.118a.264.264,0,0,0,.159-.048.473.473,0,0,0,.123-.153l.541-.855a.514.514,0,0,0,.094-.249c.008-.087.012-.17.012-.25v-1.946a.365.365,0,0,1,.289-.427.361.361,0,0,1,.134,0h1.753a.363.363,0,0,1,.424.292.373.373,0,0,1,0,.135V868.4a2.01,2.01,0,0,1-.448,1.46L892.1,872.3v1.508a.366.366,0,0,1-.29.427.357.357,0,0,1-.134,0Z" transform="translate(-866.161 -848.298)" fill="#32383d"/>
    <path id="Path_684-7" data-name="Path 684-7" d="M858.292,909.8h-3.965a.363.363,0,0,1-.424-.293.378.378,0,0,1,0-.135v-7.691a.366.366,0,0,1,.29-.428.359.359,0,0,1,.134,0h3.965a3.362,3.362,0,0,1,2.183.594,2.245,2.245,0,0,1,.712,1.828v3.7a2.245,2.245,0,0,1-.712,1.828A3.362,3.362,0,0,1,858.292,909.8Zm-1.718-6.279v4.036h1.4a.554.554,0,0,0,.418-.142.62.62,0,0,0,.135-.44v-2.884a.6.6,0,0,0-.135-.433.566.566,0,0,0-.418-.137Z" transform="translate(-842.838 -873.193)" fill="#32383d"/>
    <path id="Path_685-7" data-name="Path 685-7" d="M889.855,909.8H884.4a.364.364,0,0,1-.424-.294.377.377,0,0,1,0-.133v-7.691a.364.364,0,0,1,.424-.427h5.46a.363.363,0,0,1,.423.292.369.369,0,0,1,0,.135v1.389a.363.363,0,0,1-.423.427h-3.248v.914H888.9a.365.365,0,0,1,.424.427v1.27a.363.363,0,0,1-.424.427h-2.294v1.019h3.248a.363.363,0,0,1,.423.292.371.371,0,0,1,0,.135v1.389a.364.364,0,0,1-.423.428Z" transform="translate(-863.964 -873.193)" fill="#32383d"/>
    <path id="Path_686-7" data-name="Path 686-7" d="M914.994,909.8h-3.059a.743.743,0,0,1-.371-.083.548.548,0,0,1-.229-.308l-1.153-2.908q-.106-.261-.177-.457c-.047-.13-.087-.255-.118-.374a2.246,2.246,0,0,1-.065-.374q-.018-.2-.018-.481v-3.133a.364.364,0,0,1,.424-.428H912.1a.512.512,0,0,1,.341.1.409.409,0,0,1,.118.326v3.276a1.175,1.175,0,0,0,.024.237,1.655,1.655,0,0,0,.07.25l.553,1.661a.349.349,0,0,0,.082.16.208.208,0,0,0,.141.042h.13a.205.205,0,0,0,.141-.042.349.349,0,0,0,.082-.16l.553-1.673a1.792,1.792,0,0,0,.071-.249,1.207,1.207,0,0,0,.023-.237v-3.264a.365.365,0,0,1,.289-.427.355.355,0,0,1,.134,0H916.7a.363.363,0,0,1,.424.292.373.373,0,0,1,0,.135v3.134q0,.285-.018.48a2.257,2.257,0,0,1-.065.374c-.031.119-.071.243-.118.374s-.106.283-.177.457l-1.153,2.908a.552.552,0,0,1-.23.308.743.743,0,0,1-.369.084Z" transform="translate(-882.115 -873.194)" fill="#32383d"/>
    <path id="Path_687-7" data-name="Path 687-7" d="M940.3,928.113a.362.362,0,0,1-.423-.292.355.355,0,0,1,0-.135V926.1a.363.363,0,0,1,.423-.427h6.142a.363.363,0,0,1,.423.293.348.348,0,0,1,0,.135v1.591a.365.365,0,0,1-.288.427.349.349,0,0,1-.135,0Z" transform="translate(-903.242 -890.282)" fill="#f03c9c"/>
    <path id="Path_680-8" data-name="Path 680-8" d="M860.789,835.526a2.925,2.925,0,0,1-.159.991,1.656,1.656,0,0,1-.565.759,3,3,0,0,1-1.118.493,9.274,9.274,0,0,1-3.618,0,3.01,3.01,0,0,1-1.124-.493,1.655,1.655,0,0,1-.565-.759,2.925,2.925,0,0,1-.159-.991v-4.048a2.92,2.92,0,0,1,.159-.991,1.693,1.693,0,0,1,.565-.765,2.943,2.943,0,0,1,1.124-.5,9.277,9.277,0,0,1,3.618,0,2.947,2.947,0,0,1,1.118.5,1.693,1.693,0,0,1,.565.765,2.923,2.923,0,0,1,.159.991Zm-4.636-.428a.518.518,0,0,0,.177.4,2.143,2.143,0,0,0,1.624,0,.517.517,0,0,0,.177-.4v-3.192a.5.5,0,0,0-.177-.386,2.136,2.136,0,0,0-1.624,0,.5.5,0,0,0-.177.386Z" transform="translate(-842.547 -822.651)" fill="#32383d"/>
    <path id="Path_681-8" data-name="Path 681-8" d="M885.864,838.168H884.04a.363.363,0,0,1-.423-.292.378.378,0,0,1,0-.135V830.05a.366.366,0,0,1,.29-.427.35.35,0,0,1,.134,0h1.824a.363.363,0,0,1,.424.292.379.379,0,0,1,0,.135v2.576h1.965V830.05a.365.365,0,0,1,.289-.427.353.353,0,0,1,.135,0H890.5a.365.365,0,0,1,.423.427v7.692a.366.366,0,0,1-.29.427.355.355,0,0,1-.133,0h-1.824a.363.363,0,0,1-.424-.292.367.367,0,0,1,0-.136v-2.635h-1.965v2.635a.366.366,0,0,1-.29.427.356.356,0,0,1-.134,0Z" transform="translate(-863.714 -823.049)" fill="#32383d"/>
  </g>
</svg>
